<svg xmlns="http://www.w3.org/2000/svg" width="35" height="27" viewBox="0 0 35 27">
  <g id="Icon_ionic-ios-menu" data-name="Icon ionic-ios-menu" transform="translate(-4.5 -10.125)">
    <path id="Tracé_1" data-name="Tracé 1" d="M38.042,12.375H5.958A1.329,1.329,0,0,1,4.5,11.25h0a1.329,1.329,0,0,1,1.458-1.125H38.042A1.329,1.329,0,0,1,39.5,11.25h0A1.329,1.329,0,0,1,38.042,12.375Z"/>
    <path id="Tracé_2" data-name="Tracé 2" d="M38.042,19.125H5.958A1.329,1.329,0,0,1,4.5,18h0a1.329,1.329,0,0,1,1.458-1.125H38.042A1.329,1.329,0,0,1,39.5,18h0A1.329,1.329,0,0,1,38.042,19.125Z" transform="translate(0 5.625)"/>
    <path id="Tracé_3" data-name="Tracé 3" d="M38.042,25.875H5.958A1.329,1.329,0,0,1,4.5,24.75h0a1.329,1.329,0,0,1,1.458-1.125H38.042A1.329,1.329,0,0,1,39.5,24.75h0A1.329,1.329,0,0,1,38.042,25.875Z" transform="translate(0 11.25)"/>
  </g>
</svg>
