<svg xmlns="http://www.w3.org/2000/svg" width="28.674" height="30.445" viewBox="0 0 28.674 30.445">
  <path id="Icon_ionic-ios-close" data-name="Icon ionic-ios-close" d="M29.02,26.511,39.261,15.635a2.675,2.675,0,0,0,0-3.6,2.312,2.312,0,0,0-3.394,0L25.626,22.907,15.385,12.03a2.312,2.312,0,0,0-3.394,0,2.654,2.654,0,0,0,0,3.6L22.232,26.511,11.991,37.388a2.654,2.654,0,0,0,0,3.6,2.312,2.312,0,0,0,3.394,0L25.626,30.116,35.867,40.992a2.312,2.312,0,0,0,3.394,0,2.675,2.675,0,0,0,0-3.6Z" transform="translate(-11.285 -11.289)"/>
</svg>
