<svg xmlns="http://www.w3.org/2000/svg" width="25.5" height="29.988" viewBox="0 0 25.5 29.988">
  <path id="Icon_awesome-facebook-square" data-name="Icon awesome-facebook-square" d="M22.768,2.25H2.732A3,3,0,0,0,0,5.463V29.025a3,3,0,0,0,2.732,3.213h7.812v-10.2H6.958v-4.8h3.586V13.586c0-4.16,2.106-6.458,5.332-6.458a18.58,18.58,0,0,1,3.16.324v4.083h-1.78c-1.754,0-2.3,1.28-2.3,2.592v3.116h3.915l-.626,4.8H14.956v10.2h7.812A3,3,0,0,0,25.5,29.025V5.463A3,3,0,0,0,22.768,2.25Z" transform="translate(0 -2.25)"/>
</svg>
