<svg xmlns="http://www.w3.org/2000/svg" width="25.5" height="29.988" viewBox="0 0 25.5 29.988">
  <path id="Icon_awesome-instagram" data-name="Icon awesome-instagram" d="M12.748,9.543c-3.618,0-6.536,3.433-6.536,7.688s2.918,7.688,6.536,7.688,6.536-3.433,6.536-7.688S16.366,9.543,12.748,9.543Zm0,12.687c-2.338,0-4.25-2.242-4.25-5s1.906-5,4.25-5,4.25,2.242,4.25,5-1.911,5-4.25,5Zm8.328-13a1.671,1.671,0,0,1-1.525,1.793,1.672,1.672,0,0,1-1.525-1.793,1.676,1.676,0,0,1,1.525-1.793A1.676,1.676,0,0,1,21.076,9.229Zm4.329,1.82a9.8,9.8,0,0,0-2.059-6.283A7.006,7.006,0,0,0,18,2.343C15.9,2.2,9.59,2.2,7.485,2.343A6.993,6.993,0,0,0,2.144,4.759,9.829,9.829,0,0,0,.084,11.042c-.119,2.476-.119,9.9,0,12.372A9.8,9.8,0,0,0,2.144,29.7,7.014,7.014,0,0,0,7.485,32.12c2.1.141,8.414.141,10.519,0A6.961,6.961,0,0,0,23.346,29.7a9.862,9.862,0,0,0,2.059-6.283c.119-2.476.119-9.89,0-12.366ZM22.686,26.071a4.749,4.749,0,0,1-2.423,2.851c-1.678.783-5.66.6-7.515.6s-5.842.174-7.515-.6a4.749,4.749,0,0,1-2.423-2.851C2.144,24.1,2.3,19.413,2.3,17.232s-.148-6.872.512-8.839A4.749,4.749,0,0,1,5.233,5.542c1.678-.783,5.66-.6,7.515-.6s5.842-.174,7.515.6a4.749,4.749,0,0,1,2.423,2.851c.666,1.974.512,6.658.512,8.839S23.351,24.1,22.686,26.071Z" transform="translate(0.005 -2.238)"/>
</svg>
