<svg xmlns="http://www.w3.org/2000/svg" width="25.5" height="29.988" viewBox="0 0 25.5 29.988">
  <path id="Icon_awesome-snapchat-square" data-name="Icon awesome-snapchat-square" d="M22.768,2.25H2.732A3,3,0,0,0,0,5.463V29.025a3,3,0,0,0,2.732,3.213H22.768A3,3,0,0,0,25.5,29.025V5.463A3,3,0,0,0,22.768,2.25ZM22.4,23.328c-.2.542-1.03.937-2.55,1.218a9.39,9.39,0,0,0-.245,1.064.454.454,0,0,1-.461.395h-.011a13.886,13.886,0,0,0-1.469-.194,2.745,2.745,0,0,0-2.129.917,3.9,3.9,0,0,1-2.8,1.218,4,4,0,0,1-2.761-1.218,2.753,2.753,0,0,0-2.129-.917,12.448,12.448,0,0,0-1.469.208.472.472,0,0,1-.472-.4,9.6,9.6,0,0,0-.245-1.071c-.785-.141-2.55-.5-2.59-1.432a.463.463,0,0,1,.336-.5c2.635-.509,3.819-3.688,3.871-3.822a.037.037,0,0,1,.011-.02,1.156,1.156,0,0,0,.091-.837c-.194-.529-1.019-.716-1.366-.884-.9-.415-1.025-.9-.968-1.225a.943.943,0,0,1,1.247-.689,1.9,1.9,0,0,0,.894.281.7.7,0,0,0,.376-.094c-.08-1.6-.268-3.882.216-5.161a5.11,5.11,0,0,1,4.787-3.635l.381-.007a5.141,5.141,0,0,1,4.8,3.635c.484,1.278.3,3.554.216,5.161a.634.634,0,0,0,.324.094,2,2,0,0,0,.837-.281.985.985,0,0,1,1.366.8c.006.435-.324.81-.979,1.111-.08.04-.176.074-.279.114-.37.141-.933.348-1.081.77a1.187,1.187,0,0,0,.091.837c.006.007.006.013.011.02.051.134,1.235,3.313,3.871,3.822A.537.537,0,0,1,22.4,23.328Z" transform="translate(0 -2.25)"/>
</svg>
