<svg xmlns="http://www.w3.org/2000/svg" width="25.5" height="29.988" viewBox="0 0 25.5 29.988">
  <path id="Icon_awesome-twitter-square" data-name="Icon awesome-twitter-square" d="M22.768,2.25H2.732A3,3,0,0,0,0,5.463V29.025a3,3,0,0,0,2.732,3.213H22.768A3,3,0,0,0,25.5,29.025V5.463A3,3,0,0,0,22.768,2.25ZM19.984,12.88c.011.187.011.382.011.569,0,5.8-3.757,12.49-10.621,12.49a9.46,9.46,0,0,1-5.732-1.968,6.7,6.7,0,0,0,.9.054A6.809,6.809,0,0,0,9.175,22.15,3.871,3.871,0,0,1,5.686,19.1a3.439,3.439,0,0,0,1.685-.08,4.277,4.277,0,0,1-2.988-4.311V14.66a3.321,3.321,0,0,0,1.685.556,4.63,4.63,0,0,1-1.662-3.655,4.932,4.932,0,0,1,.507-2.216,10.176,10.176,0,0,0,7.7,4.592c-.529-2.979,1.366-5.4,3.643-5.4a3.487,3.487,0,0,1,2.726,1.386A6.689,6.689,0,0,0,21.345,8.87a4.324,4.324,0,0,1-1.639,2.416,6.577,6.577,0,0,0,2.152-.683A8.755,8.755,0,0,1,19.984,12.88Z" transform="translate(0 -2.25)"/>
</svg>
