<svg xmlns="http://www.w3.org/2000/svg" width="25.5" height="29.988" viewBox="0 0 25.5 29.988">
  <path id="Icon_awesome-youtube-square" data-name="Icon awesome-youtube-square" d="M10.633,13.636l5.419,3.621-5.419,3.621ZM25.5,5.463V29.025a3,3,0,0,1-2.732,3.213H2.732A3,3,0,0,1,0,29.025V5.463A3,3,0,0,1,2.732,2.25H22.768A3,3,0,0,1,25.5,5.463Zm-2.391,11.8a37.706,37.706,0,0,0-.433-5.9,2.867,2.867,0,0,0-1.833-2.169c-1.611-.515-8.094-.515-8.094-.515s-6.483,0-8.094.515A2.867,2.867,0,0,0,2.823,11.36a37.659,37.659,0,0,0-.433,5.9,37.706,37.706,0,0,0,.433,5.9A2.817,2.817,0,0,0,4.656,25.3c1.611.509,8.094.509,8.094.509s6.483,0,8.094-.515a2.817,2.817,0,0,0,1.833-2.135,37.59,37.59,0,0,0,.433-5.9Z" transform="translate(0 -2.25)"/>
</svg>
